<svg width="150" height="150" viewBox="0 0 150 150" fill="none" xmlns="http://www.w3.org/2000/svg">
<path fill-rule="evenodd" clip-rule="evenodd" d="M66.0015 59.3915H79.0005V65.8665C80.873 62.1425 85.675 58.7965 92.8885 58.7965C106.717 58.7965 110 66.2095 110 79.8105V105H96V82.908C96 75.1625 94.1275 70.7945 89.3605 70.7945C82.749 70.7945 80.0015 75.502 80.0015 82.9045V105H66.0015V59.3915ZM41.995 104.405H55.995V58.7965H41.995V104.405ZM58.0005 43.925C58.001 45.0985 57.7683 46.2603 57.3159 47.3431C56.8634 48.4258 56.2003 49.4078 55.365 50.232C53.6724 51.9142 51.3813 52.8558 48.995 52.85C46.6129 52.8484 44.3271 51.9092 42.632 50.2355C41.7997 49.4085 41.1389 48.4254 40.6872 47.3425C40.2356 46.2596 40.002 45.0983 40 43.925C40 41.5555 40.945 39.2875 42.6355 37.6145C44.3291 35.9386 46.6158 34.999 48.9985 35C51.3855 35 53.6745 35.9415 55.365 37.6145C57.052 39.2875 58.0005 41.5555 58.0005 43.925Z" fill="#111111"/>
<circle cx="75" cy="75" r="73.5" stroke="#111111" stroke-width="3"/>
</svg>
